<svg enable-background="new 0 0 255.5 142.5" viewBox="0 0 255.5 142.5" xmlns="http://www.w3.org/2000/svg" xmlns:xlink="http://www.w3.org/1999/xlink"><linearGradient id="a" gradientTransform="matrix(1 0 0 -1 0 115.9305)" gradientUnits="userSpaceOnUse" x1="214.6468" x2="217.5748" y1="94.747" y2="86.7027"><stop offset="0" stop-color="#bad534"/><stop offset=".2932" stop-color="#29b354"/><stop offset="1" stop-color="#275432"/></linearGradient><g fill="#47ac3e"><path d="m44.2 112.9v29.3h-5.4v-29.3h-5.7v-4.9h16.9v4.8h-5.8z"/><path d="m66.7 142.2-4.5-14h-3v14h-5.4v-34.2h8.6c6.2 0 8.7 3 8.7 10.1 0 4.2-.9 7.2-4 8.9l5.1 15.2zm-4.1-29.3h-3.3v10.5h3.3c2.9 0 3.3-2.4 3.3-5.2 0-2.9-.5-5.3-3.3-5.3z"/><path d="m76.8 142.2v-34.2h14.4v4.8h-9v9.7h7.7v4.8h-7.7v9.9h9v4.8h-14.4z"/><path d="m95.8 142.2v-34.2h14.4v4.8h-9v9.7h7.7v4.8h-7.7v9.9h9v4.8h-14.4z"/><path d="m137.1 142.2-1.4-6.8h-7.9l-1.3 6.8h-5.7l8.4-34.2h5.2l8.3 34.2zm-5.3-25.9-2.9 14.3h5.9z"/><path d="m153 112.9v29.3h-5.4v-29.3h-5.7v-4.9h16.8v4.8h-5.7z"/><path d="m162.7 142.2v-34.2h5.4v29.3h9v4.8h-14.4z"/><path d="m195.9 142.2-1.4-6.8h-7.9l-1.3 6.8h-5.7l8.4-34.2h5.2l8.3 34.2zm-5.4-25.9-2.9 14.3h5.9z"/><path d="m219.1 140.3c-1.4 1.3-3.6 2.3-6.7 2.3-3 0-5.2-.8-6.6-2.3-1.6-1.6-2.2-3.7-2.2-7.3h5.4c0 1.8.2 3 1 3.8.5.5 1.3.9 2.5.9s2.1-.3 2.6-1c.7-.8.9-2 .9-3.8 0-3.6-.6-4.6-3.2-5.6l-4.1-1.7c-3.5-1.4-4.8-3.3-4.8-8.6 0-3.1.9-5.6 2.8-7.2 1.5-1.3 3.4-2.1 5.9-2.1 2.7 0 4.8.7 6.1 2.1 1.8 1.7 2.4 4.2 2.4 7.4h-5.4c0-1.5-.1-2.7-.8-3.6-.5-.6-1.2-1-2.4-1-1.1 0-1.8.4-2.3 1-.6.7-.9 1.9-.9 3.4 0 2.8.4 3.6 2.8 4.6l4 1.6c4.1 1.7 5.2 3.8 5.2 9.6 0 3.4-.5 5.8-2.2 7.5z"/></g><g fill="#2683c6"><path d="m16.7 97.6c-6 0-9.5-2.3-12.1-5.3-4.7-5.3-4.6-14.5-4.6-26.8s-.1-21.5 4.6-26.8c2.6-3 6.2-5.3 12.1-5.3 4.8 0 8.5 1.6 11.2 4.2 3.1 3.2 4.7 7.7 4.8 13.1h-9.9c-.1-3.5-.9-8.4-6.2-8.4-2.4 0-3.8 1-4.7 2.4-1.8 3-2.2 9.3-2.2 20.8 0 11.4.4 17.8 2.2 20.8.9 1.4 2.3 2.4 4.7 2.4 4.2 0 6.2-3.7 6.2-8v-9.8h-6.2v-8.1h16v17.3c.1 11.4-6.6 17.5-15.9 17.5z"/><path d="m65.4 96.9-8.2-25.7h-5.5v25.7h-9.9v-62.7h15.8c11.4 0 16 5.5 16 18.5 0 7.7-1.6 13.3-7.3 16.4l9.3 27.8zm-7.6-53.8h-6.1v19.2h6.1c5.3 0 6.1-4.4 6.1-9.6s-.9-9.6-6.1-9.6z"/><path d="m111.1 92.3c-2.6 3-6.2 5.3-12.1 5.3-6 0-9.5-2.3-12.1-5.3-4.7-5.3-4.6-14.4-4.6-26.8 0-12.3-.1-21.5 4.6-26.8 2.6-3 6.2-5.3 12.1-5.3 6 0 9.5 2.3 12.1 5.3 4.7 5.3 4.6 14.4 4.6 26.8 0 12.3.1 21.5-4.6 26.8zm-7.4-47.5c-.9-1.4-2.4-2.4-4.8-2.4s-3.8 1-4.7 2.4c-1.8 3-2.2 9.3-2.2 20.8 0 11.4.4 17.8 2.2 20.8.9 1.4 2.3 2.4 4.7 2.4s3.9-1 4.8-2.4c1.8-3 2.1-9.3 2.1-20.8s-.2-17.9-2.1-20.8z"/><path d="m149.2 96.9-2.6-12.4h-14.5l-2.5 12.4h-10.4l15.4-62.7h9.6l15.2 62.7zm-9.8-47.6-5.4 26.3h10.7z"/><path d="m191.9 93.3c-2.6 2.5-6.7 4.1-12.2 4.1s-9.5-1.5-12.1-4.1c-3-3-4-6.9-4-13.5h9.9c0 3.3.4 5.5 1.8 7 .9 1 2.4 1.7 4.6 1.7 2.3 0 3.8-.6 4.8-1.8 1.3-1.5 1.7-3.6 1.7-7 0-6.7-1.1-8.3-5.9-10.3l-7.5-3.1c-6.3-2.6-8.7-6.1-8.7-15.8 0-5.6 1.7-10.2 5.1-13.3 2.7-2.4 6.2-3.8 10.7-3.8 5 0 8.7 1.3 11.3 3.8 3.3 3.2 4.4 7.7 4.4 13.6h-9.9c0-2.8-.2-5-1.5-6.7-.9-1.1-2.3-1.8-4.4-1.8-2 0-3.3.7-4.2 1.8-1.1 1.3-1.7 3.4-1.7 6.2 0 5.1.8 6.7 5.2 8.4l7.4 3c7.5 3 9.5 7 9.5 17.6-.3 6.6-1.1 11-4.3 14z"/><path d="m251.4 93.3c-2.6 2.5-6.7 4.1-12.2 4.1s-9.5-1.5-12.1-4.1c-3-3-4-6.9-4-13.5h9.9c0 3.3.4 5.5 1.8 7 .9 1 2.4 1.7 4.6 1.7 2.3 0 3.8-.6 4.8-1.8 1.3-1.5 1.7-3.6 1.7-7 0-6.7-1.1-8.3-5.9-10.3l-7.5-3.1c-6.3-2.6-8.7-6.1-8.7-15.8 0-5.6 1.7-10.2 5.1-13.3 2.7-2.4 6.2-3.8 10.7-3.8 5 0 8.7 1.3 11.3 3.8 3.3 3.2 4.4 7.7 4.4 13.6h-9.9c0-2.8-.2-5-1.5-6.7-.9-1.1-2.3-1.8-4.4-1.8-2 0-3.3.7-4.2 1.8-1.1 1.3-1.7 3.4-1.7 6.2 0 5.1.8 6.7 5.2 8.4l7.4 3c7.5 3 9.5 7 9.5 17.6-.2 6.6-1.1 11-4.3 14z"/></g><path d="m217.2 34c-.3-.2-3.3 1.6-5.8 2.1-2.8 3.6-3.7 7.6-4.5 12.7-.8 4.9-3.9 39.5-7.2 47.8 8.3-1.1 10.9-1 13.1-.2.8-34.2 2-39.1 2.9-46.7.9-8.3 5-14 4.5-15.1-1.4 0-2.5-.7-3-.6z" fill="#47b74f"/><path d="m228.6 21c.8-.7 1.5-1.4 2-2.1 4.2-5.6 3.7-8.5 6.2-9.7 0 0-14.2-2.1-21.1 10.3-5.7-21.2-26.3-19.6-26.3-19.6 1.2.3 4 11.6 7.9 18.3 1 2 2.3 3.8 3.8 5.4-7.8-.8-12.8 2.4-12.8 2.4.7-.4 4.9 6.3 11.1 8 3.7 1 9.4-.4 13.4-1.7 2-.6 3.5-1.2 4.3-1.5h.1c4.5.8 13.2 2 17.8-.2 6.6-3 10.2-8.4 11-8.1.1.1-7.4-4.4-17.4-1.5z" fill="#47b74f"/><path d="m220.4 25.2c0 2.4-1.9 4.3-4.3 4.3s-4.3-1.9-4.3-4.3 1.9-4.3 4.3-4.3 4.3 2 4.3 4.3z" fill="url(#a)" opacity=".25"/></svg>