<svg enable-background="new 0 0 255.5 134.38" viewBox="0 0 255.5 134.38" xmlns="http://www.w3.org/2000/svg" xmlns:xlink="http://www.w3.org/1999/xlink"><linearGradient id="a" gradientTransform="matrix(1 0 0 -1 0 133.86)" gradientUnits="userSpaceOnUse" x1="214.6446" x2="217.5726" y1="112.5329" y2="104.4885"><stop offset="0" stop-color="#bad534"/><stop offset=".2932" stop-color="#29b354"/><stop offset="1" stop-color="#275432"/></linearGradient><g fill="#47ac3e"><path d="m24.09 129.6v-21.35h8.97v3.03h-5.61v6.06h4.83v3.03h-4.83v6.21h5.61v3.03z"/><path d="m44.52 129.6-.87-4.23h-4.95l-.84 4.23h-3.54l5.25-21.35h3.27l5.19 21.35zm-3.33-16.19-1.83 8.94h3.66z"/><path d="m58.04 129.6-2.79-8.76h-1.89v8.76h-3.36v-21.35h5.4c3.9 0 5.46 1.89 5.46 6.3 0 2.64-.54 4.53-2.49 5.58l3.18 9.48h-3.51zm-2.61-18.32h-2.07v6.54h2.07c1.8 0 2.07-1.5 2.07-3.27s-.27-3.27-2.07-3.27z"/><path d="m69.38 111.28v18.32h-3.36v-18.32h-3.57v-3.03h10.52v3.03z"/><path d="m82.93 129.6v-9.35h-4.17v9.35h-3.36v-21.35h3.36v9h4.17v-9h3.36v21.35z"/><path d="m104.47 128.04c-.9 1.02-2.1 1.8-4.14 1.8s-3.24-.78-4.14-1.8c-1.59-1.8-1.56-4.92-1.56-9.11 0-4.2-.03-7.32 1.56-9.11.9-1.02 2.1-1.8 4.14-1.8s3.24.78 4.14 1.8c1.59 1.8 1.56 4.92 1.56 9.11 0 4.2.03 7.32-1.56 9.11zm-2.52-16.19c-.3-.48-.81-.81-1.62-.81s-1.29.33-1.59.81c-.63 1.02-.75 3.18-.75 7.08s.12 6.06.75 7.08c.3.48.78.81 1.59.81s1.32-.33 1.62-.81c.63-1.02.72-3.18.72-7.08s-.09-6.06-.72-7.08z"/><path d="m118.56 128.25c-.9.93-2.22 1.35-4.2 1.35h-5.31v-21.35h5.34c1.98 0 3.27.42 4.17 1.32.96.99 1.32 2.4 1.32 4.5 0 1.44-.15 2.64-1.11 3.6-.33.33-.69.57-1.11.75.45.18.84.45 1.14.78 1.05 1.14 1.14 2.76 1.14 4.08 0 2.43-.36 3.93-1.38 4.97zm-4.55-16.97h-1.59v5.79h1.59c1.77 0 2.52-.87 2.52-2.91 0-2.16-.72-2.88-2.52-2.88zm.03 8.64h-1.62v6.66h1.62c1.83 0 2.55-.84 2.55-3.33 0-2.37-.75-3.33-2.55-3.33z"/><path d="m132.15 128.4c-.87.84-2.28 1.41-4.17 1.41-1.86 0-3.24-.51-4.14-1.41-1.02-1.02-1.38-2.34-1.38-4.59h3.36c0 1.14.12 1.86.6 2.4.3.33.81.57 1.56.57.78 0 1.29-.21 1.62-.6.45-.51.57-1.23.57-2.37 0-2.28-.36-2.85-2.01-3.51l-2.55-1.05c-2.16-.9-2.97-2.07-2.97-5.37 0-1.92.57-3.48 1.74-4.53.93-.81 2.13-1.29 3.66-1.29 1.71 0 2.97.45 3.84 1.29 1.11 1.08 1.5 2.61 1.5 4.65h-3.36c0-.96-.06-1.71-.51-2.28-.3-.39-.78-.63-1.5-.63-.69 0-1.11.24-1.44.6-.39.45-.57 1.17-.57 2.1 0 1.74.27 2.28 1.77 2.88l2.52 1.02c2.55 1.05 3.24 2.4 3.24 6 0 2.2-.3 3.67-1.38 4.71z"/><path d="m136.47 129.6v-21.35h8.97v3.03h-5.61v6.06h4.83v3.03h-4.83v6.21h5.61v3.03z"/><path d="m156.38 129.6-2.79-8.76h-1.89v8.76h-3.36v-21.35h5.4c3.9 0 5.46 1.89 5.46 6.3 0 2.64-.54 4.53-2.49 5.58l3.18 9.48h-3.51zm-2.61-18.32h-2.07v6.54h2.07c1.8 0 2.07-1.5 2.07-3.27s-.27-3.27-2.07-3.27z"/><path d="m169.06 129.6h-3.48l-4.68-21.35h3.69l2.73 16.19 2.76-16.19h3.69z"/><path d="m183.25 129.6-.87-4.23h-4.95l-.84 4.23h-3.54l5.25-21.35h3.27l5.19 21.35zm-3.33-16.19-1.83 8.94h3.66z"/><path d="m193.2 111.28v18.32h-3.36v-18.32h-3.57v-3.03h10.52v3.03z"/><path d="m199.23 129.6v-21.35h3.36v21.35z"/><path d="m215.45 128.04c-.9 1.02-2.1 1.8-4.14 1.8s-3.24-.78-4.14-1.8c-1.59-1.8-1.56-4.92-1.56-9.11 0-4.2-.03-7.32 1.56-9.11.9-1.02 2.1-1.8 4.14-1.8s3.24.78 4.14 1.8c1.59 1.8 1.56 4.92 1.56 9.11 0 4.2.03 7.32-1.56 9.11zm-2.52-16.19c-.3-.48-.81-.81-1.62-.81s-1.29.33-1.59.81c-.63 1.02-.75 3.18-.75 7.08s.12 6.06.75 7.08c.3.48.78.81 1.59.81s1.32-.33 1.62-.81c.63-1.02.72-3.18.72-7.08s-.09-6.06-.72-7.08z"/><path d="m228.44 129.6-5.04-12.68v12.68h-3.36v-21.35h3l5.01 12.68v-12.68h3.36v21.35z"/></g><path d="m16.7 97.7c-6 0-9.5-2.3-12.1-5.3-4.7-5.3-4.6-14.4-4.6-26.7s-.1-21.5 4.6-26.8c2.6-3 6.2-5.3 12.1-5.3 4.8 0 8.5 1.6 11.2 4.2 3.1 3.2 4.7 7.8 4.8 13.2h-9.9c-.1-3.5-.9-8.4-6.2-8.4-2.4 0-3.8 1-4.7 2.4-1.8 3-2.2 9.3-2.2 20.8 0 11.4.4 17.8 2.2 20.8.9 1.4 2.3 2.4 4.7 2.4 4.2 0 6.2-3.7 6.2-8v-10h-6.2v-8.1h16v17.3c.1 11.4-6.6 17.5-15.9 17.5z" fill="#2683c6"/><path d="m65.4 97-8.2-25.7h-5.5v25.7h-9.9v-62.7h15.8c11.4 0 16 5.5 16 18.5 0 7.7-1.6 13.3-7.3 16.4l9.4 27.8zm-7.6-53.8h-6.1v19.2h6.1c5.3 0 6.1-4.4 6.1-9.6s-.9-9.6-6.1-9.6z" fill="#2683c6"/><path d="m111.1 92.4c-2.6 3-6.2 5.3-12.1 5.3-6 0-9.5-2.3-12.1-5.3-4.7-5.3-4.6-14.4-4.6-26.8 0-12.3-.1-21.5 4.6-26.8 2.6-3 6.2-5.3 12.1-5.3 6 0 9.5 2.3 12.1 5.3 4.7 5.3 4.6 14.4 4.6 26.8s.1 21.5-4.6 26.8zm-7.4-47.5c-.9-1.4-2.4-2.4-4.8-2.4s-3.8 1-4.7 2.4c-1.8 3-2.2 9.3-2.2 20.8 0 11.4.4 17.8 2.2 20.8.9 1.4 2.3 2.4 4.7 2.4s3.9-1 4.8-2.4c1.8-3 2.1-9.3 2.1-20.8s-.2-17.8-2.1-20.8z" fill="#2683c6"/><path d="m149.2 97-2.6-12.4h-14.5l-2.5 12.4h-10.4l15.4-62.7h9.6l15.3 62.7zm-9.8-47.5-5.4 26.2h10.7z" fill="#2683c6"/><path d="m191.9 93.5c-2.6 2.5-6.7 4.1-12.2 4.1s-9.5-1.5-12.1-4.1c-3-3-4-6.9-4-13.5h9.9c0 3.3.4 5.5 1.8 7 .9 1 2.4 1.7 4.6 1.7 2.3 0 3.8-.6 4.8-1.8 1.3-1.5 1.7-3.6 1.7-7 0-6.7-1.1-8.3-5.9-10.3l-7.5-3.1c-6.3-2.6-8.7-6.1-8.7-15.8 0-5.6 1.7-10.2 5.1-13.3 2.7-2.4 6.2-3.8 10.7-3.8 5 0 8.7 1.3 11.3 3.8 3.3 3.2 4.4 7.7 4.4 13.6h-9.9c0-2.8-.2-5-1.5-6.7-.9-1.1-2.3-1.8-4.4-1.8-2 0-3.3.7-4.2 1.8-1.1 1.3-1.7 3.4-1.7 6.2 0 5.1.8 6.7 5.2 8.4l7.4 3c7.5 3 9.5 7 9.5 17.6-.3 6.6-1.1 10.9-4.3 14z" fill="#2683c6"/><path d="m251.4 93.5c-2.6 2.5-6.7 4.1-12.2 4.1s-9.5-1.5-12.1-4.1c-3-3-4-6.9-4-13.5h9.9c0 3.3.4 5.5 1.8 7 .9 1 2.4 1.7 4.6 1.7 2.3 0 3.8-.6 4.8-1.8 1.3-1.5 1.7-3.6 1.7-7 0-6.7-1.1-8.3-5.9-10.3l-7.5-3.1c-6.3-2.6-8.7-6.1-8.7-15.8 0-5.6 1.7-10.2 5.1-13.3 2.7-2.4 6.2-3.8 10.7-3.8 5 0 8.7 1.3 11.3 3.8 3.3 3.2 4.4 7.7 4.4 13.6h-9.9c0-2.8-.2-5-1.5-6.7-.9-1.1-2.3-1.8-4.4-1.8-2 0-3.3.7-4.2 1.8-1.1 1.3-1.7 3.4-1.7 6.2 0 5.1.8 6.7 5.2 8.4l7.4 3c7.5 3 9.5 7 9.5 17.6-.2 6.6-1.1 10.9-4.3 14z" fill="#2683c6"/><path d="m217.2 34.1c-.3-.2-3.3 1.6-5.8 2.1-2.8 3.6-3.7 7.6-4.5 12.7-.8 4.9-3.9 39.5-7.2 47.8 8.3-1.1 10.9-1 13.1-.2.8-34.2 2-39.1 2.9-46.7.9-8.3 5-14 4.5-15.1-1.4 0-2.5-.6-3-.6z" fill="#47b74f"/><path d="m228.6 21.2c.8-.7 1.5-1.4 2-2.1 4.2-5.6 3.7-8.5 6.2-9.7 0 0-14.2-2.1-21.1 10.3-5.7-21.3-26.3-19.7-26.3-19.7 1.2.3 4 11.6 7.9 18.3 1 2 2.3 3.8 3.8 5.4-7.8-.8-12.8 2.4-12.8 2.4.7-.4 4.9 6.3 11.1 8 3.7 1 9.4-.4 13.4-1.7 2-.6 3.5-1.2 4.3-1.5h.1c4.5.8 13.2 2 17.8-.2 6.6-3 10.2-8.4 11-8.1.1.1-7.4-4.3-17.4-1.4z" fill="#47b74f"/><path d="m220.4 25.3c0 2.4-1.9 4.3-4.3 4.3s-4.3-1.9-4.3-4.3 1.9-4.3 4.3-4.3c2.4.1 4.3 2 4.3 4.3z" fill="url(#a)" opacity=".25"/></svg>